inDegrees=yes
name=ik_S53_A02_T01
DataType=double
version=3
OpenSimVersion=4.3-2021-08-27-4bc7ad9
endheader
time	pelvis_tilt	pelvis_list	pelvis_rotation	pelvis_tx	pelvis_ty	pelvis_tz	hip_flexion_r	hip_adduction_r	hip_rotation_r	knee_angle_r	knee_angle_r_beta	ankle_angle_r	subtalar_angle_r	mtp_angle_r	hip_flexion_l	hip_adduction_l	hip_rotation_l	knee_angle_l	knee_angle_l_beta	ankle_angle_l	subtalar_angle_l	mtp_angle_l	lumbar_extension	lumbar_bending	lumbar_rotation	arm_flex_r	arm_add_r	arm_rot_r	elbow_flex_r	pro_sup_r	wrist_flex_r	wrist_dev_r	arm_flex_l	arm_add_l	arm_rot_l	elbow_flex_l	pro_sup_l	wrist_flex_l	wrist_dev_l
0	0	0	0	0	0.9399999999999999	0	0	0	0	0	0	0	0	0	0	0	0	0	0	0	0	0	0	0	0	0	0	0	0	89.99999999963507	0	0	0	0	0	0	89.99999999869995	0	0
0.02	-0.6606318523725413	1.538399483032553	91.78619975872758	0	0.9399999999999999	0	-2.582636518387855	-4.146363670706	-1.627340029429803	0.7216904277106042	0.01259587414367617	0	0	0	-3.234905478665675	-3.69887096479647	-2.664337463266337	-0.2291646782858574	-0.003999678165361767	0	0	0	0	0	0	1.910697307390598	-1.910697307390598	0.3398419443287033	9.377629590691551	89.66015807526919	0	0	1.910697307390598	-1.910697307390598	0.3398419443287033	9.377629590691551	89.6601580743978	0	0
0.04	-0.6875578785911322	1.489976650944604	91.71952596632252	0	0.9399999999999999	0	-2.473478181206151	-4.18264628094977	-1.595226768935703	0.8923561952051882	0.01557455370689977	0	0	0	-3.15327832868279	-3.685348256072282	-2.672321904852219	-0.07213535598307431	-0.001258999469002838	0	0	0	0	0	0	2.887469086808914	-2.887469086808914	0.5207975558472042	12.76677518840519	89.47920247440548	0	0	2.887469086808914	-2.887469086808914	0.5207975558472042	12.76677518840519	89.47920247356802	0	0
0.06	-0.6890887379646901	1.493484505002781	91.68151749044281	0	0.9399999999999999	0	-2.492730565488344	-4.200386545871953	-1.594324956817316	0.8938633873879237	0.01560085917294883	0	0	0	-3.162391491931427	-3.659694674341874	-2.675916870319423	-0.08335594681690886	-0.001454835723072347	0	0	0	0	0	0	3.020373139244196	-3.020373139244195	0.5453399281623728	13.18482375925107	89.45466010353468	0	0	3.020373139244196	-3.020373139244195	0.5453399281623728	13.18482375925107	89.45466010270182	0	0
0.08	-0.6841738620773995	1.486342523625205	91.6173191443865	0	0.9399999999999999	0	-2.476186863464392	-4.19806491822525	-1.512993239474417	0.8653248314021155	0.01510276740723173	0	0	0	-3.157213212462108	-3.656017733387045	-2.734832109321296	-0.07742225448874721	-0.001351273255145598	0	0	0	0	0	0	3.178816526743562	-3.178816526743562	0.5751889953773907	13.92010149668122	89.42481103808647	0	0	3.178816526743562	-3.178816526743562	0.5751889953773907	13.92010149668122	89.42481103725919	0	0
0.1	-0.6952942684120993	1.487181104470254	91.63413824307041	0	0.9399999999999999	0	-2.544880980761731	-4.220691941125525	-1.558474952472275	0.6190813754593552	0.01080500833954097	0	0	0	-3.203842586422425	-3.644622139509238	-2.686148003461936	-0.3248352995438911	-0.005669445503742935	0	0	0	0	0	0	3.26347547938785	-3.26347547938785	0.5908649405139388	14.20833337771681	89.40913509387326	0	0	3.26347547938785	-3.26347547938785	0.5908649405139388	14.20833337771681	89.4091350930489	0	0
0.12	-0.6921406818341963	1.481200261594014	91.60493146682175	0	0.9399999999999999	0	-2.549337942002214	-4.229553677617616	-1.564788963395397	0.5783805043526512	0.01009464413029916	0	0	0	-3.214846299773754	-3.634993939194263	-2.711620584384303	-0.3765738437629688	-0.006572453450554518	0	0	0	0	0	0	3.997405142052894	-3.997405142052894	0.7246570728150019	16.60336267789826	89.27534296942083	0	0	3.997405142052894	-3.997405142052894	0.7246570728150019	16.60336267789826	89.27534296862159	0	0
0.14	-0.6996610446368926	1.475671438199103	91.59983714871579	0	0.9399999999999999	0	-2.547641676496626	-4.230093909883401	-1.587610193916263	0.6084604529418707	0.01061963827201166	0	0	0	-3.177044614678043	-3.618083205819127	-2.705290780123677	-0.3252241768168349	-0.00567623269254198	0	0	0	0	0	0	4.147388068621689	-4.147388068621688	0.7518105597612709	17.07270740353276	89.24818948406504	0	0	4.147388068621689	-4.147388068621688	0.7518105597612709	17.07270740353276	89.24818948327088	0	0
0.16	-0.692610804112147	1.484540471963528	91.57847614879404	0	0.9399999999999999	0	-2.544818257102356	-4.230069808234608	-1.584796266535805	0.6056416399809571	0.01057044070484583	0	0	0	-3.186150531968082	-3.62227678917375	-2.722943580657041	-0.3190910859755706	-0.005569190064038009	0	0	0	0	0	0	4.295420542717307	-4.295420542717306	0.7784449239364378	17.51240353858056	89.22155512144748	0	0	4.295420542717307	-4.295420542717306	0.7784449239364378	17.51240353858056	89.22155512065832	0	0
0.18	-0.6901983052394014	1.486269055243333	91.53824665691135	0	0.9399999999999999	0	-2.529280742738944	-4.251147703569566	-1.567216563591122	0.6276938638235479	0.01095532461828583	0	0	0	-3.143850241109063	-3.626562044878586	-2.734731138697875	-0.307701133348783	-0.005370397889054388	0	0	0	0	0	0	4.43837530556625	-4.438375305566249	0.8041138017840672	17.93822704476759	89.19588624510033	0	0	4.43837530556625	-4.438375305566249	0.8041138017840672	17.93822704476759	89.19588624431597	0	0
